<?xml version="1.0" standalone="no"?>
<!DOCTYPE svg PUBLIC "-//W3C//DTD SVG 20010904//EN"
 "http://www.w3.org/TR/2001/REC-SVG-20010904/DTD/svg10.dtd">
<svg version="1.0" xmlns="http://www.w3.org/2000/svg"
 width="1024.000000pt" height="1024.000000pt" viewBox="0 0 1024.000000 1024.000000"
 preserveAspectRatio="xMidYMid meet">

<g transform="translate(0.000000,1024.000000) scale(0.100000,-0.100000)"
fill="#000000" stroke="none">
<path d="M4960 9443 c-431 -29 -854 -124 -1240 -278 -211 -84 -531 -259 -715
-390 -489 -349 -929 -879 -1215 -1460 -330 -673 -519 -1434 -636 -2565 -27
-262 -28 -265 -57 -299 -85 -99 -102 -265 -37 -362 37 -56 77 -80 149 -86 149
-14 243 108 228 295 -3 40 -14 81 -30 112 -23 45 -24 53 -16 131 5 46 18 170
29 274 31 297 49 447 75 620 146 967 416 1701 850 2312 l90 127 6 -87 c7 -106
39 -165 111 -212 l47 -30 0 -212 1 -213 -23 0 c-33 0 -104 -64 -132 -120 -13
-27 -33 -81 -44 -120 -41 -147 -89 -214 -333 -465 -165 -170 -198 -218 -198
-287 1 -62 36 -98 97 -98 43 0 72 22 313 241 313 284 318 288 357 295 79 15
100 0 378 -276 143 -142 270 -263 282 -269 36 -18 72 -13 100 15 22 23 25 31
19 72 -9 70 -66 173 -176 322 -172 233 -236 331 -299 460 -69 140 -98 175
-177 215 l-55 28 3 205 c2 158 6 206 16 210 28 9 98 69 110 94 15 31 0 74 -28
81 -20 5 -94 -25 -104 -42 -11 -16 -68 -13 -95 5 -70 49 -68 222 5 367 18 35
68 93 158 182 l131 130 6 -85 c3 -47 10 -94 14 -105 19 -45 60 -96 93 -118 20
-12 40 -25 45 -29 6 -4 9 -98 8 -245 -2 -207 -4 -239 -18 -248 -96 -59 -142
-151 -159 -315 l-6 -66 41 -28 c48 -34 57 -47 150 -231 53 -104 104 -185 201
-315 72 -96 145 -200 164 -231 110 -183 114 -327 13 -416 -76 -66 -165 -65
-258 3 -26 19 -151 141 -278 271 -261 268 -243 258 -336 178 -97 -84 -389
-355 -397 -369 -4 -7 -14 -80 -22 -162 -85 -839 -143 -1413 -177 -1734 -54
-511 -55 -538 -35 -577 20 -40 55 -64 130 -92 63 -23 178 -33 195 -16 5 6 21
134 36 285 67 698 71 729 92 758 29 40 68 41 87 3 21 -41 20 -94 -9 -386 -14
-137 -34 -340 -45 -450 -11 -110 -27 -258 -36 -330 -22 -177 -16 -277 20 -339
32 -55 87 -97 165 -127 160 -61 862 -179 1081 -182 123 -1 155 7 169 47 10 25
-23 357 -39 394 -6 13 -32 32 -67 47 -114 51 -120 64 -143 323 -84 922 -85
943 -57 985 22 34 61 36 82 3 11 -17 21 -92 35 -277 11 -140 22 -272 25 -294
3 -22 14 -155 25 -295 10 -141 24 -268 29 -283 19 -49 63 -59 281 -64 175 -4
199 -3 230 14 61 32 66 53 46 243 -28 263 -191 1648 -271 2310 -91 739 -118
906 -160 991 -36 70 -114 149 -239 243 -143 107 -177 147 -221 261 -49 125
-82 168 -157 203 l-60 27 6 89 c3 49 6 157 6 240 l1 151 42 20 c40 19 87 73
87 101 0 8 -9 23 -20 34 -23 23 -54 19 -105 -12 -64 -38 -127 -16 -154 55 -16
40 -14 135 4 193 18 62 48 102 112 154 53 42 265 171 271 165 2 -2 -2 -21 -9
-42 -20 -58 -15 -169 9 -224 21 -49 81 -114 114 -125 19 -6 20 -14 17 -192 -2
-103 -5 -196 -7 -208 -2 -12 -18 -28 -37 -37 -64 -31 -121 -143 -132 -263 -6
-61 -5 -62 34 -105 52 -57 70 -92 108 -214 l31 -100 60 -30 c68 -34 182 -123
264 -205 63 -63 112 -149 135 -236 18 -68 60 -386 145 -1109 33 -280 73 -620
90 -755 88 -729 149 -1294 157 -1465 7 -152 -3 -188 -69 -236 -62 -44 -129
-61 -267 -68 l-126 -6 -3 -120 c-3 -155 1 -163 93 -186 120 -31 346 -62 450
-63 114 -1 142 10 171 66 18 34 17 71 -6 413 -41 611 -53 881 -70 1575 -24
999 -76 1862 -126 2078 -32 144 -97 230 -289 381 -181 144 -211 186 -286 410
-49 142 -82 193 -157 236 l-51 30 -1 166 c0 214 2 222 56 254 51 30 74 60 74
95 0 53 -40 64 -104 29 -25 -13 -52 -19 -79 -17 -34 2 -45 9 -65 38 -21 31
-23 43 -19 110 7 123 59 211 155 265 50 28 235 105 240 100 2 -2 -4 -27 -12
-56 -42 -140 3 -287 102 -338 22 -12 22 -14 22 -225 l0 -214 -24 -6 c-50 -12
-136 -147 -136 -214 0 -18 21 -52 51 -86 10 -10 36 -64 59 -120 51 -124 103
-222 138 -260 15 -16 79 -70 142 -121 197 -158 272 -256 305 -397 56 -245 111
-1159 140 -2348 9 -350 34 -1076 41 -1198 5 -74 12 -109 24 -124 23 -28 84
-37 278 -37 183 -1 225 8 236 53 4 15 -7 187 -23 384 -17 196 -44 526 -61 732
-55 678 -72 873 -140 1595 -37 392 -84 777 -110 897 -42 193 -89 267 -291 459
-173 164 -181 177 -279 454 -75 211 -109 269 -182 313 l-55 33 2 62 c1 34 3
128 3 208 l2 146 39 18 c58 26 83 56 79 95 -5 52 -26 58 -108 30 l-70 -24 -27
20 c-38 28 -53 60 -53 115 0 97 58 196 134 229 41 17 193 62 254 75 l34 7 -18
-34 c-13 -23 -19 -62 -21 -128 -3 -84 -1 -100 20 -140 13 -25 42 -58 65 -75
l41 -30 0 -212 c1 -178 -1 -213 -13 -213 -42 0 -126 -118 -126 -178 0 -13 16
-53 36 -88 20 -36 67 -146 104 -245 37 -99 84 -204 103 -233 20 -30 86 -98
147 -152 119 -105 206 -207 246 -287 56 -109 72 -207 144 -892 84 -807 166
-1732 205 -2330 8 -132 20 -307 25 -388 15 -230 14 -268 -12 -308 -14 -20 -44
-44 -75 -59 -29 -14 -55 -29 -59 -33 -9 -9 -5 -359 5 -414 5 -24 17 -50 27
-58 33 -24 154 -38 339 -39 170 -1 183 0 228 23 77 37 83 60 68 234 -74 858
-98 1169 -136 1742 -68 1012 -133 1756 -195 2230 -39 298 -54 329 -285 620
-262 329 -437 569 -482 663 -52 108 -87 152 -143 177 -27 12 -39 23 -35 33 3
7 5 101 5 207 l0 194 43 19 c53 24 80 53 80 88 0 29 -25 54 -52 54 -9 0 -36
-9 -60 -20 -57 -26 -83 -25 -111 5 -17 18 -25 40 -28 78 -9 113 47 205 142
232 62 17 200 35 277 35 l56 0 -25 -51 c-29 -62 -39 -148 -23 -207 13 -47 68
-115 113 -138 l28 -15 0 -213 0 -214 -24 -6 c-33 -8 -93 -78 -105 -123 -6 -21
-11 -61 -11 -89 0 -55 10 -73 80 -149 21 -22 110 -134 198 -250 88 -115 207
-271 266 -345 157 -200 184 -264 210 -509 9 -75 27 -239 40 -366 32 -285 89
-913 116 -1265 44 -575 69 -934 80 -1120 6 -107 13 -205 16 -217 4 -22 9 -23
107 -23 128 0 199 18 216 56 9 20 9 79 1 247 -13 278 -57 1124 -70 1357 -5 96
-17 312 -25 480 -28 570 -44 771 -71 900 -29 142 -80 225 -384 628 -154 206
-293 399 -309 430 -15 32 -38 89 -51 127 -12 39 -29 83 -37 99 -20 39 -92 116
-109 116 -12 0 -14 41 -14 225 l0 225 24 0 c30 0 86 38 105 72 12 21 13 31 3
52 -15 33 -56 35 -127 5 -47 -19 -54 -20 -86 -6 -71 29 -87 123 -36 211 42 75
60 81 220 80 78 0 185 -6 239 -13 l96 -13 -26 -52 c-23 -44 -27 -63 -27 -146
0 -83 3 -101 25 -140 14 -25 42 -56 63 -69 l37 -24 -1 -141 c-1 -78 -4 -168
-8 -200 -6 -55 -8 -60 -35 -67 -74 -20 -146 -133 -146 -230 0 -48 5 -63 38
-110 43 -61 342 -462 484 -649 100 -132 145 -209 172 -300 18 -60 48 -342 65
-620 20 -324 41 -684 51 -885 5 -110 14 -292 20 -405 46 -935 51 -1174 25
-1238 -40 -95 -112 -128 -305 -141 l-95 -6 3 -120 c3 -172 20 -373 32 -395 22
-41 82 -59 275 -84 192 -24 348 -29 490 -17 269 25 335 61 335 183 0 25 -11
144 -25 264 -75 674 -132 1319 -195 2229 -42 612 -77 992 -111 1205 -50 317
-114 417 -414 643 -324 243 -334 255 -385 427 -12 41 -33 96 -45 121 -23 44
-85 109 -105 109 -12 0 -14 389 -2 406 4 5 28 18 55 28 74 28 99 83 57 121
-19 17 -25 18 -68 5 -78 -23 -121 -19 -144 11 -42 55 -33 158 20 228 24 33 26
33 81 28 81 -9 344 -78 501 -132 326 -112 679 -285 925 -453 601 -412 1058
-928 1340 -1515 160 -333 255 -659 302 -1028 23 -186 23 -623 0 -809 -100
-800 -379 -1492 -862 -2136 -315 -419 -726 -803 -1185 -1109 -698 -464 -1368
-716 -2156 -810 -72 -8 -283 -26 -470 -40 -395 -29 -501 -40 -642 -65 -178
-32 -242 -81 -242 -184 0 -120 64 -159 315 -191 675 -87 2140 -97 2989 -19
363 33 450 68 463 186 10 88 -44 148 -163 182 -151 43 -494 78 -913 93 l-190
6 137 52 c838 317 1646 917 2248 1670 487 609 800 1302 923 2045 45 272 55
394 55 695 0 296 -7 403 -45 633 -166 1007 -811 1950 -1755 2565 -519 338
-1083 543 -1709 622 -226 28 -562 41 -745 28z"/>
</g>
</svg>
